# xmcd CD database file
#
# Track frame offsets:
#	150
#	20190
#	38895
#	59606
#	77155
#	95613
#	111943
#	130183
#	149076
#	165439
#	183761
#
# Disc length: 2855 seconds
#
# Revision: 1
# Processed by: cddbd v1.5.1PL0 Copyright (c) Steve Scherf et al.
# Submitted via: jetAudio 5
#
DISCID=9b0b250b
DTITLE=Diversos - 33a. Califórnia da Canção Nativa do Rio Grande do Sul
DYEAR=1900
DGENRE=
TTITLE0=Em Todas as Partes
TTITLE1=Lágrima de Barro
TTITLE2=Cuia e Cambona
TTITLE3=Temporona Mañanera
TTITLE4=Bem Gaúcha
TTITLE5=Galpão Açoriano
TTITLE6=Reparando Cercas
TTITLE7=Milonga em Mim
TTITLE8=Léguas de Saudade
TTITLE9=A Razão das Esporas
TTITLE10=De Volta da Palmeira
EXTD=Música Nativista do Rio Grande do Sul - BrasilDisco 2
EXTT0=Música Nativista do Rio Grande do Sul - Brasil
EXTT1=Música Nativista do Rio Grande do Sul - Brasil
EXTT2=Música Nativista do Rio Grande do Sul - Brasil
EXTT3=Música Nativista do Rio Grande do Sul - Brasil
EXTT4=Música Nativista do Rio Grande do Sul - Brasil
EXTT5=Música Nativista do Rio Grande do Sul - Brasil
EXTT6=Música Nativista do Rio Grande do Sul - Brasil
EXTT7=Música Nativista do Rio Grande do Sul - Brasil
EXTT8=Música Nativista do Rio Grande do Sul - Brasil
EXTT9=Música Nativista do Rio Grande do Sul - Brasil
EXTT10=Música Nativista do Rio Grande do Sul - Brasil
PLAYORDER=
